<svg width="34" height="34" viewBox="0 0 34 34" fill="none" xmlns="http://www.w3.org/2000/svg">
<path fill-rule="evenodd" clip-rule="evenodd" d="M5.04453 0.738967C4.41067 1.30315 4.1816 1.76746 4.076 2.70034L3.9376 3.92221L2.71093 4.06007C1.0168 4.25025 0 5.36747 0 7.03904C0 8.7239 1.01493 9.82756 2.74187 10.0215L4 10.1628V11.9576V13.7522L2.8048 13.9307C1.0232 14.1968 0 15.3164 0 16.9999C0 18.6835 1.0232 19.8031 2.8048 20.0692L4 20.2477V22.0423V23.8371L2.74187 23.9784C1.01493 24.1723 0 25.276 0 26.9609C0 28.6457 1.01493 29.7494 2.74187 29.9433C3.92187 30.0758 4 30.1327 4 30.8602C4 31.2865 4.1792 31.9812 4.3984 32.4032C5.24933 34.0421 4.9112 33.9999 17.1944 33.9999C23.6931 33.9999 28.7853 33.8907 29.312 33.7404C30.7413 33.3321 32.1744 32.1976 33.1251 30.7216C33.9515 29.4389 34 29.2282 34 26.9221C34 24.596 33.9592 24.4228 33.1333 23.2559L32.2667 22.0314V12.3353C32.2667 1.85087 32.2056 1.34034 30.8459 0.452624C30.2179 0.0430311 29.0013 0 18.0136 0H5.8752L5.04453 0.738967ZM29.8573 2.63871C30.0315 2.96277 30.1333 6.35665 30.1333 11.8312C30.1333 19.9951 30.1056 20.4982 29.6667 20.3118C29.4099 20.2028 28.5219 20.057 27.6928 19.9877C21.8368 19.4984 17.9909 25.9685 21.2192 30.8788L21.8741 31.8749H14.3237C8.80667 31.8749 6.6872 31.7891 6.45333 31.5562C5.90827 31.0132 6.08827 29.9945 6.83227 29.4115C8.49093 28.1121 8.52827 25.9478 6.91547 24.596C6.18053 23.98 6.13333 23.8222 6.13333 21.9812C6.13333 20.1192 6.17253 19.993 6.92027 19.4421C8.47253 18.2989 8.47253 15.701 6.92027 14.5578C6.17253 14.0069 6.13333 13.8807 6.13333 12.0187C6.13333 10.1777 6.18053 10.0199 6.91547 9.40389C8.52827 8.05213 8.49093 5.88783 6.83227 4.58839C6.08827 4.00535 5.90827 2.98668 6.45333 2.44374C6.69227 2.20574 9.6632 2.12499 18.1773 2.12499C29.1792 2.12499 29.5909 2.14306 29.8573 2.63871ZM14.9029 7.6181L13.0579 9.39247L12.1829 8.54779C11.7016 8.08321 11.048 7.7031 10.7301 7.7031C9.9984 7.7031 9.48533 8.58683 9.83707 9.2416C10.1995 9.91628 12.7149 12.2187 13.0896 12.2187C13.2613 12.2187 14.4667 11.1812 15.7677 9.91283C18.2285 7.51398 18.6424 6.66504 17.6176 6.11865C17.3339 5.96751 17.0221 5.84373 16.9251 5.84373C16.8277 5.84373 15.9179 6.6422 14.9029 7.6181ZM5.4448 6.27059C6.1216 6.52931 5.97493 7.66591 5.24133 7.84946C3.39733 8.31032 1.592 7.47759 2.38133 6.53011C2.73627 6.10431 4.59733 5.94653 5.4448 6.27059ZM20.3272 8.2803C20.1472 8.4596 20 8.80677 20 9.05194C20 9.96489 20.6376 10.1118 24.2749 10.0353C27.3005 9.97153 27.8517 9.89397 28.1035 9.49607C28.3173 9.15739 28.3173 8.90505 28.1035 8.56638C27.8515 8.16794 27.2992 8.09118 24.2317 8.02796C21.6757 7.97563 20.5608 8.04762 20.3272 8.2803ZM14.9029 15.5868L13.0579 17.3612L12.1829 16.5165C11.7016 16.0519 11.048 15.6718 10.7301 15.6718C9.9984 15.6718 9.48533 16.5556 9.83707 17.2103C10.1995 17.885 12.7149 20.1874 13.0896 20.1874C13.2613 20.1874 14.4667 19.1499 15.7677 17.8816C18.2285 15.4827 18.6424 14.6338 17.6176 14.0874C17.3339 13.9362 17.0221 13.8125 16.9251 13.8125C16.8277 13.8125 15.9179 14.6109 14.9029 15.5868ZM20.3272 16.249C20.1472 16.4283 20 16.7755 20 17.0207C20 17.9336 20.6376 18.0805 24.2749 18.004C27.3005 17.9403 27.8517 17.8627 28.1035 17.4648C28.3173 17.1261 28.3173 16.8738 28.1035 16.5351C27.8515 16.1367 27.2992 16.0599 24.2317 15.9967C21.6757 15.9444 20.5608 16.0163 20.3272 16.249ZM5.73333 16.9999C5.73333 17.6292 5.6456 17.6683 4.0632 17.7432C2.31973 17.8258 1.868 17.5405 2.23467 16.5888C2.3592 16.2655 2.75067 16.1946 4.0632 16.2567C5.6456 16.3316 5.73333 16.3707 5.73333 16.9999ZM14.9029 23.5556L13.0579 25.3299L12.1829 24.4852C11.7016 24.0207 11.048 23.6406 10.7301 23.6406C9.9984 23.6406 9.48533 24.5243 9.83707 25.179C10.1995 25.8537 12.7149 28.1562 13.0896 28.1562C13.2613 28.1562 14.4667 27.1186 15.7677 25.8503C18.2285 23.4514 18.6424 22.6025 17.6176 22.0561C17.3339 21.905 17.0221 21.7812 16.9251 21.7812C16.8277 21.7812 15.9179 22.5797 14.9029 23.5556ZM29.2144 22.7064C30.8539 23.5261 31.772 24.8223 31.9389 26.5531C32.2643 29.926 28.9192 32.6566 25.7416 31.6119C21.3384 30.1646 21.1811 23.971 25.508 22.4344C26.9875 21.9089 27.728 21.9631 29.2144 22.7064ZM26.3112 24.0833C26.2133 24.1806 26.1333 25.0133 26.1333 25.9332C26.1333 27.8433 26.424 28.1562 28.1981 28.1562C29.5152 28.1562 30.2123 27.6618 30.092 26.8132C30.0256 26.3454 29.7579 26.0931 29.1333 25.9098C28.5128 25.7278 28.2667 25.4978 28.2667 25.0996C28.2667 24.7939 28.1227 24.4002 27.9467 24.2249C27.6016 23.8812 26.6008 23.7946 26.3112 24.0833ZM5.4448 26.1924C6.1216 26.4511 5.97493 27.5877 5.24133 27.7713C3.39733 28.2321 1.592 27.3994 2.38133 26.4519C2.73627 26.0261 4.59733 25.8683 5.4448 26.1924Z" fill="#7541FA"/>
</svg>
