<svg width="29" height="28" viewBox="0 0 29 28" fill="none" xmlns="http://www.w3.org/2000/svg">
<path d="M18.0724 7.35002C17.8587 7.5681 17.7389 7.86131 17.7389 8.16668C17.7389 8.47206 17.8587 8.76527 18.0724 8.98335L19.9391 10.85C20.1572 11.0638 20.4504 11.1835 20.7558 11.1835C21.0611 11.1835 21.3544 11.0638 21.5724 10.85L25.9708 6.45168C26.5574 7.74807 26.735 9.19246 26.48 10.5924C26.2249 11.9922 25.5493 13.2812 24.5431 14.2873C23.5369 15.2935 22.248 15.9692 20.8481 16.2242C19.4482 16.4793 18.0038 16.3017 16.7074 15.715L8.64577 23.7767C8.18164 24.2408 7.55215 24.5016 6.89577 24.5016C6.23939 24.5016 5.6099 24.2408 5.14577 23.7767C4.68164 23.3126 4.4209 22.6831 4.4209 22.0267C4.4209 21.3703 4.68164 20.7408 5.14577 20.2767L13.2074 12.215C12.6208 10.9186 12.4432 9.47424 12.6982 8.07435C12.9533 6.67445 13.6289 5.38553 14.6351 4.37936C15.6413 3.37319 16.9302 2.69755 18.3301 2.44248C19.73 2.18742 21.1744 2.36504 22.4708 2.95168L18.0841 7.33835L18.0724 7.35002Z" stroke="#7541FA" stroke-width="2.33333" stroke-linecap="round" stroke-linejoin="round"/>
</svg>
