<svg width="42" height="43" viewBox="0 0 42 43" fill="none" xmlns="http://www.w3.org/2000/svg">
<path d="M14.875 25.875C16.0353 25.875 17.1481 25.4141 17.9686 24.5936C18.7891 23.7731 19.25 22.6603 19.25 21.5C19.25 19.085 18.375 18 17.5 16.25C15.624 12.4998 17.108 9.1555 21 5.75C21.875 10.125 24.5 14.325 28 17.125C31.5 19.925 33.25 23.25 33.25 26.75C33.25 28.3587 32.9331 29.9516 32.3175 31.4379C31.7019 32.9241 30.7996 34.2745 29.6621 35.4121C28.5245 36.5496 27.1741 37.4519 25.6879 38.0675C24.2016 38.6831 22.6087 39 21 39C19.3913 39 17.7984 38.6831 16.3121 38.0675C14.8259 37.4519 13.4755 36.5496 12.3379 35.4121C11.2004 34.2745 10.2981 32.9241 9.68248 31.4379C9.06686 29.9516 8.75 28.3587 8.75 26.75C8.75 24.7323 9.50775 22.7355 10.5 21.5C10.5 22.6603 10.9609 23.7731 11.7814 24.5936C12.6019 25.4141 13.7147 25.875 14.875 25.875Z" stroke="#7541FA" stroke-width="3.5" stroke-linecap="round" stroke-linejoin="round"/>
</svg>
