<svg width="665" height="820" viewBox="0 0 665 820" fill="none" xmlns="http://www.w3.org/2000/svg">
<path d="M276.779 37.4485C167.028 72.8159 152.203 79.0572 164.167 83.4781C165.987 84.2582 184.193 90.7596 204.218 98.3011L241.149 111.564L266.636 105.323C296.285 98.0411 334.516 91.7998 366.505 89.1993C393.553 87.1188 391.993 91.0197 363.904 95.9607C339.717 99.8615 264.556 118.845 261.955 121.446C260.915 122.486 256.754 136.009 252.592 151.352L245.31 179.438L220.343 190.62C169.108 213.765 139.2 233.789 103.309 269.157C45.3124 326.629 5.00079 404.905 0.579511 468.358C-1.76117 501.385 2.13996 507.886 28.1475 516.468C47.393 522.709 120.474 524.01 151.683 518.809C182.112 513.608 428.5 479.5 422.5 457C429.5 460 220.343 489.162 196.156 491.503C183.412 492.543 156.625 493.843 136.859 493.843C107.991 494.103 99.6681 493.323 94.4666 489.943C85.8841 484.481 89.0051 479.02 108.511 465.237C139.46 442.873 184.453 425.709 255.973 409.066C282.501 402.824 292.904 401.784 326.194 401.784C360.784 401.784 366.765 402.304 380.029 407.505C425.542 425.709 412.018 456.396 328.014 526.87C292.384 556.776 282.241 567.179 277.82 577.321C267.937 601.246 298.366 618.669 349.86 618.669C386.271 618.669 416.96 611.648 463.513 592.924C509.547 574.46 538.155 587.203 530.353 622.83C520.47 666.519 473.656 715.93 414.619 745.056C377.949 762.999 361.824 767.16 324.113 768.72C287.962 770.281 280.68 767.42 304.607 760.659C313.71 758.058 327.754 752.337 336.337 747.916C371.447 729.192 403.956 688.624 388.872 682.903C382.89 680.562 312.41 691.224 296.805 696.686C289.003 699.546 277.299 705.267 270.538 709.688C263.776 713.849 257.274 717.49 255.973 717.49C254.933 717.49 248.171 712.029 241.149 705.527C223.464 688.884 206.819 682.643 156.625 673.021C132.698 668.6 106.69 663.659 99.148 662.098C82.5032 658.718 79.1222 661.058 81.4629 674.061C87.1845 704.747 147.262 760.399 206.559 789.785C255.713 813.97 308.508 823.852 362.344 818.651C478.077 807.989 578.727 736.474 632.042 627.771C664.291 561.717 672.874 494.624 657.789 421.288C642.965 348.473 607.075 281.899 553.499 228.588L528.272 203.363L523.851 166.435C521.25 146.151 519.689 129.248 520.21 128.727C521.25 127.687 583.928 108.963 586.269 108.963C587.049 108.963 587.569 121.186 587.569 136.009C587.569 158.374 586.529 165.915 581.067 180.218C573.005 201.803 573.005 206.484 581.067 214.285C588.869 222.347 600.053 222.607 609.415 215.326C618.258 208.564 618.258 199.462 609.675 177.878C603.694 163.055 603.174 158.374 603.694 132.108L604.474 102.982L622.159 97.7811C641.665 92.0599 644.266 87.1189 631.262 81.9178C597.972 68.1349 402.396 -0.259338 397.454 0.000732422C394.073 0.260803 339.717 16.9043 276.779 37.4485ZM333.216 282.419C357.663 304.524 280.94 365.637 209.16 381.24C177.951 388.001 165.727 378.899 176.91 357.315C192.515 327.669 234.127 296.202 275.479 282.94C294.464 276.698 326.714 276.438 333.216 282.419Z" fill="#7541FA"/>
</svg>
