<svg width="61" height="36" viewBox="0 0 61 36" fill="none" xmlns="http://www.w3.org/2000/svg">
<path d="M22.7476 0.300882C16.7582 0.841738 17.4793 0.601357 12.6717 3.58608C7.86409 6.5708 7.64374 6.85125 9.84723 6.9514L11.1493 7.0115L11.3696 8.75426C11.4898 9.71578 11.59 10.7775 11.57 11.098C11.57 11.4385 11.63 12.0395 11.7102 12.4601C11.8304 13.1011 11.9305 13.2013 12.3913 13.2013C13.3728 13.2013 13.493 12.9809 13.2326 11.7189C13.1124 11.098 12.9321 10.5972 12.832 10.5972C12.6717 10.5972 12.231 8.41372 12.231 7.55236V7.03153L15.5963 6.91134C17.4392 6.83121 19.2621 6.69099 19.6427 6.59083C20.0233 6.49068 21.2453 5.76953 22.347 4.9883C23.4487 4.20706 25.3718 2.88497 26.6138 2.04364C27.8357 1.20231 28.8573 0.40104 28.8573 0.240787C28.8573 -0.0997524 26.9142 -0.0797205 22.7476 0.300882Z" fill="#223158"/>
<path d="M49.3154 23.396C49.3154 29.0365 43.3584 33.609 36.01 33.609C28.6616 33.609 22.7046 29.0365 22.7046 23.396C22.7046 17.7555 28.6616 13.183 36.01 13.183C43.3584 13.183 49.3154 17.7555 49.3154 23.396Z" fill="#223158"/>
<path d="M57.7788 15.5835C57.7788 21.224 51.8218 25.7965 44.4734 25.7965C37.125 25.7965 31.168 21.224 31.168 15.5835C31.168 9.94301 37.125 5.37048 44.4734 5.37048C51.8218 5.37048 57.7788 9.94301 57.7788 15.5835Z" fill="#223158"/>
<path d="M56.4766 19.4082C56.4766 25.0487 50.5195 29.6213 43.1711 29.6213C35.8228 29.6213 29.8657 25.0487 29.8657 19.4082C29.8657 13.7677 35.8228 9.19519 43.1711 9.19519C50.5195 9.19519 56.4766 13.7677 56.4766 19.4082Z" fill="#223158"/>
<path d="M31.7375 32.5993L32.2404 31.2826C39.3225 28.9818 48.7543 26.5869 54.0727 11.5131C54.0727 11.5131 57.5878 10.973 57.5345 12.1428C57.4812 13.3125 56.2932 29.6314 31.7375 32.5993Z" fill="#223158"/>
<path d="M57.4937 12.1406C57.4998 12.0058 57.455 11.8969 57.3712 11.8073C57.2863 11.7167 57.16 11.6447 57.0024 11.589C56.6868 11.4774 56.2578 11.4353 55.8229 11.4297C55.3889 11.4241 54.9528 11.4549 54.6249 11.4872C54.4611 11.5033 54.3243 11.5198 54.2287 11.5322C54.1809 11.5385 54.1433 11.5437 54.1177 11.5473C54.1121 11.5481 54.107 11.5489 54.1026 11.5495C51.4415 19.0793 47.7528 23.4476 43.8413 26.2206C39.934 28.9907 35.8064 30.1671 32.2713 31.315L31.7994 32.5503C44.024 31.058 50.432 26.2506 53.7915 21.6723C57.158 17.0843 57.4673 12.7211 57.4937 12.1406ZM57.575 12.1443C57.5482 12.7336 57.2367 17.1147 53.857 21.7205C50.4764 26.3276 44.0296 31.1542 31.7421 32.6394L31.6752 32.6475L32.2092 31.2496L32.2276 31.2436C35.7705 30.0926 39.8924 28.9204 43.7943 26.1542C47.6947 23.389 51.3775 19.029 54.0342 11.4993L54.0423 11.4763L54.0663 11.4726L54.0725 11.5128C54.0667 11.4752 54.0663 11.4727 54.0663 11.4726L54.0666 11.4726C54.0667 11.4726 54.0668 11.4725 54.067 11.4725C54.0675 11.4724 54.0682 11.4723 54.0691 11.4722C54.0708 11.4719 54.0733 11.4716 54.0767 11.4711C54.0834 11.4701 54.0933 11.4686 54.1063 11.4668C54.1322 11.4631 54.17 11.4578 54.2182 11.4515C54.3146 11.439 54.4521 11.4224 54.6169 11.4062C54.9464 11.3737 55.3858 11.3426 55.8239 11.3483C56.2611 11.3539 56.701 11.3961 57.0295 11.5122C57.1938 11.5703 57.3335 11.648 57.4306 11.7517C57.5288 11.8566 57.5822 11.9867 57.575 12.1443Z" fill="white"/>
<path d="M32.2495 30.1647L32.5208 29.1717C37.5347 26.9802 44.2613 24.5476 47.0456 13.2122L48.8449 12.1351C48.8449 12.1351 51.1547 10.4185 51.2017 11.2717C51.2487 12.1249 50.0025 26.2034 32.2495 30.1647Z" fill="#223158"/>
<path d="M51.1611 11.2742C51.1558 11.1781 51.1201 11.1268 51.0684 11.1003C51.0128 11.0718 50.9296 11.067 50.821 11.087C50.6049 11.1266 50.3167 11.2583 50.0254 11.4193C49.7353 11.5797 49.4463 11.7669 49.2295 11.9141C49.1212 11.9877 49.031 12.0512 48.968 12.0963C48.9365 12.1188 48.9118 12.1368 48.895 12.1491C48.8865 12.1553 48.8801 12.16 48.8758 12.1632C48.8736 12.1648 48.872 12.166 48.8709 12.1668C48.8703 12.1672 48.8699 12.1675 48.8696 12.1677C48.8695 12.1678 48.8694 12.1679 48.8693 12.1679L48.8677 12.1692L48.8659 12.1702L47.0811 13.2386C45.6866 18.9039 43.3068 22.3491 40.646 24.652C37.9902 26.9504 35.0563 28.1087 32.555 29.2014L32.3066 30.1103C41.1296 28.1245 45.853 23.6338 48.3659 19.5317C49.6259 17.475 50.3306 15.5152 50.7174 14.0167C51.1045 12.5169 51.1726 11.4816 51.1611 11.2742ZM51.2424 11.2697C51.2545 11.4889 51.1843 12.5334 50.7962 14.037C50.4078 15.542 49.7002 17.5094 48.4353 19.5742C45.9049 23.7047 41.146 28.2215 32.2584 30.2046L32.1925 30.2193L32.4816 29.1612L32.4868 29.1424L32.5046 29.1347C35.0133 28.0382 37.942 26.8846 40.5928 24.5904C43.2422 22.2974 45.6158 18.863 47.0061 13.2028L47.0102 13.1863L47.0248 13.1775L48.8224 12.1014C48.8235 12.1005 48.8253 12.0993 48.8275 12.0977C48.8319 12.0944 48.8384 12.0896 48.8469 12.0834C48.864 12.0709 48.8889 12.0528 48.9206 12.0301C48.9841 11.9847 49.0748 11.9208 49.1838 11.8468C49.4016 11.6989 49.6929 11.5102 49.9861 11.3481C50.2781 11.1866 50.5762 11.0491 50.8063 11.0069C50.9209 10.9859 51.0259 10.987 51.1056 11.0279C51.1892 11.0708 51.2359 11.1525 51.2424 11.2697Z" fill="white"/>
<path d="M44.1638 14.0474L33.8191 25.9883L33.8531 27.6402C41.799 23.7584 43.9844 17.3584 44.1638 14.0474Z" fill="#223158"/>
<path d="M44.2044 14.0499C44.0243 17.3739 41.8316 23.7881 33.871 27.6771L33.8138 27.705L33.7782 25.9738L33.7884 25.9619L44.2108 13.9312L44.2044 14.0499ZM33.8601 26.0035L33.8924 27.5756C41.6822 23.7449 43.8919 17.4878 44.1158 14.1652L33.8601 26.0035Z" fill="white"/>
<path d="M46.5055 2.84741C50.9525 2.84741 53.9974 3.94913 56.6215 6.55325C58.825 8.71666 59.7665 11.0003 59.7865 14.0651C59.7865 16.8896 58.5445 20.5354 56.7417 22.9793L56.1608 23.7805L56.7216 24.5016C58.6447 26.9655 58.6447 30.7916 56.6816 33.6161C55.8803 34.7779 54.8988 35.8997 54.6784 35.8997C54.5983 35.8997 54.418 35.5191 54.2778 35.0584C53.757 33.1153 52.3547 31.4526 50.5719 30.6914C49.33 30.1506 48.7891 30.1907 47.4871 30.9118C41.4776 34.217 36.1892 35.2186 28.9578 34.4174C26.594 34.1369 26.5339 34.1369 25.6525 34.5976C21.9467 36.4806 17.3194 36.4606 13.5935 34.5776C13.0527 34.3172 12.6322 34.0369 12.6319 33.9967C12.6319 33.9366 13.3931 33.536 14.3346 33.1153C15.5165 32.5544 16.4179 31.9735 17.2392 31.1722C17.9003 30.5512 18.4411 29.9703 18.4411 29.9102C18.4411 29.8301 18.1005 29.6097 17.6999 29.3894C16.6382 28.8084 14.0542 26.1442 13.2529 24.8221C12.6486 23.7822 12.1234 22.614 11.7322 21.4353C12.4249 21.4992 13.2775 21.5693 14.3227 21.6461C19.6151 22.0346 23.4769 17.7626 25.6034 14.2059C26.0983 13.7847 26.614 13.3408 27.1148 12.9033C34.3863 6.63342 37.6915 4.53003 42.1386 3.34816C43.6009 2.96756 44.5023 2.86744 46.5055 2.84741ZM52.495 25.7636C52.9156 25.363 52.5951 25.4231 50.7923 26.0641C48.9494 26.7051 46.4854 27.887 42.7796 29.8902C40.0353 31.3725 39.1739 31.7531 36.069 32.8148C34.4465 33.3757 34.2662 33.4558 34.9071 33.4759C36.9704 33.536 40.6162 32.4543 43.8613 30.8317C46.0648 29.7099 51.9541 26.2644 52.495 25.7636ZM54.7786 22.859C54.6382 22.6187 52.4348 22.6588 51.3932 22.8992C48.6089 23.5602 45.524 24.8823 41.1971 27.3261C37.7116 29.2892 34.9672 30.4911 32.3631 31.1923C31.2614 31.4927 30.1397 31.7932 29.8792 31.8533C29.0379 32.0937 29.4986 32.3941 30.5603 32.314C31.8423 32.2339 34.9873 31.4327 36.67 30.7516C38.6331 29.9704 39.1739 29.7099 42.0585 28.1074C46.9262 25.4232 50.2114 24.0409 53.2762 23.3799C54.1576 23.1796 54.8387 22.9392 54.7786 22.859ZM32.5333 22.2485C31.6375 22.9884 30.8608 24.0213 30.8608 25.4031C30.8608 29.3493 30.8808 29.6898 31.2213 29.6698C31.4016 29.6698 32.6035 29.2491 33.8655 28.7283L36.1691 27.7869L36.2292 27.0256C36.3094 26.1042 36.1491 26.0842 34.3663 26.9055C33.6252 27.226 32.884 27.4663 32.7438 27.4062C32.5635 27.3261 32.4633 26.9656 32.4633 26.3245V25.363L33.525 24.9424C34.0859 24.702 34.767 24.4616 35.0274 24.3815C35.3879 24.2813 35.4681 24.121 35.4681 23.46C35.4681 23.0394 35.428 22.6789 35.3679 22.6788C35.3078 22.6788 34.7069 22.8991 34.0258 23.1795C33.3447 23.46 32.7237 23.6804 32.6235 23.6804C32.5234 23.6803 32.4633 23.2597 32.5034 22.7188L32.5333 22.2485ZM42.5393 15.2871C42.2788 15.3071 37.5914 17.8111 37.331 18.0515C37.1908 18.1917 37.0706 18.5924 37.0706 18.993V19.6741L38.0722 19.1732L39.0737 18.6725V22.3383C39.0737 24.3611 39.1338 26.0636 39.1939 26.1442C39.254 26.2043 39.6146 26.0642 39.9952 25.8438L40.6763 25.4431V17.771L41.6779 17.3103C42.6394 16.8696 42.6794 16.8095 42.6794 16.0684C42.6794 15.6277 42.6194 15.2671 42.5393 15.2871ZM49.2498 12.9834C49.3099 12.2623 49.1898 12.1421 48.4886 12.4025C47.467 12.7631 45.2635 13.8048 44.6425 14.2054L43.8814 14.6661V19.0931C43.8814 23.2196 43.9014 23.5201 44.2419 23.4199C44.4222 23.3598 45.6241 22.8791 46.8861 22.3383L49.1897 21.3567L49.2498 20.6155C49.3299 19.674 49.1697 19.674 47.1866 20.5754C45.4839 21.3366 45.4238 21.3166 45.524 19.8543L45.584 18.9729L47.0063 18.372C48.3283 17.8111 48.4486 17.7109 48.5688 17.09C48.6288 16.7094 48.6489 16.3487 48.5888 16.3087C48.5485 16.2687 47.8475 16.4891 47.0464 16.8095L45.584 17.4105L45.524 16.509C45.4839 16.0082 45.564 15.5074 45.6842 15.3872C45.8044 15.267 46.6457 14.8464 47.5471 14.4458C49.1297 13.7447 49.1897 13.7046 49.2498 12.9834ZM35.8286 18.8928C35.4881 18.8928 35.5081 20.4653 35.1876 20.7257L36.069 20.3752V19.6139C36.069 19.1532 35.9688 18.8727 35.8286 18.8928ZM55.5799 11.461C54.8587 11.1806 53.9172 11.2207 53.0959 11.5812C51.3532 12.3425 50.4518 13.965 50.3316 16.5691C50.2314 18.6324 50.5319 19.6139 51.3732 20.1748C52.9958 21.2365 55.9004 20.3351 55.9004 18.7726V18.0915L54.9789 18.5723C53.8371 19.1933 53.0759 19.2133 52.5751 18.6524C52.2747 18.3118 52.1945 17.9313 52.1945 16.5891C52.2145 13.8448 53.1761 12.6629 55.1993 12.9234L56.1007 13.0635V12.3624C56.1007 11.7815 56.0005 11.6213 55.5799 11.461ZM24.4306 4.44995C24.6109 4.44995 25.6525 7.79524 25.6525 8.39619C25.6525 8.6566 25.1918 9.23749 24.5307 9.83844C23.5091 10.7599 22.147 11.5211 18.7616 13.0435C15.2361 14.626 13.9941 18.0515 16.7384 18.6725C17.1884 18.7731 17.7066 18.7722 18.2724 18.6765C15.6414 20.5197 12.6986 20.0028 11.0758 19.0316C10.9435 18.5615 10.8073 18.1405 10.7089 17.9313C10.3283 17.0298 9.12636 16.2086 7.12321 15.4874C4.63928 14.586 3.4774 13.945 2.41572 12.8833C1.1938 11.6614 0.212265 9.5981 0.0520054 7.99557C-0.0481519 6.87381 -0.0280985 6.79362 0.33246 6.93383C2.53595 7.77516 3.01671 7.85533 5.22019 7.73514C7.94447 7.55486 8.94606 7.79523 9.90757 8.85688C10.4084 9.41777 10.6689 9.97869 10.9092 11.0203C11.0895 11.8016 11.2297 12.6029 11.2297 12.8032C11.2297 14.1052 12.8123 14.5059 13.8539 13.4843C14.5149 12.8032 14.5549 12.5027 14.1343 10.3192C13.974 9.45787 13.8338 8.51635 13.8338 8.19584V7.65504H16.4981C19.5829 7.65504 19.9635 7.5148 22.5876 5.65188C23.5091 4.99084 24.3304 4.44997 24.4306 4.44995Z" fill="#223158"/>
<path d="M49.8853 24.5759C49.8853 29.5647 42.9628 33.6089 34.4234 33.6089C25.884 33.6089 18.9614 29.5647 18.9614 24.5759C18.9614 19.5871 25.884 15.5428 34.4234 15.5428C42.9628 15.5428 49.8853 19.5871 49.8853 24.5759Z" fill="#223158"/>
<path d="M58.0793 14.1968C59.3299 19.0263 53.6421 24.6767 45.3753 26.8172C37.1085 28.9578 29.3932 26.7779 28.1427 21.9484C26.8922 17.1188 32.58 11.4685 40.8467 9.32794C49.1135 7.18739 56.8288 9.36725 58.0793 14.1968Z" fill="#223158"/>
<path d="M30.9247 32.6807L31.4725 31.3875C38.4482 29.4014 47.7079 27.4248 53.5524 12.6011C53.5524 12.6011 56.9873 12.2166 56.8825 13.3828C56.7777 14.549 54.8842 30.7986 30.9247 32.6807Z" fill="white"/>
<path d="M56.8422 13.3791C56.8543 13.2443 56.8157 13.1334 56.7385 13.0403C56.6603 12.9462 56.5413 12.8688 56.3911 12.8063C56.0903 12.681 55.6763 12.62 55.2547 12.5953C54.834 12.5706 54.4096 12.5821 54.09 12.5999C53.9303 12.6088 53.797 12.6192 53.7037 12.6274C53.657 12.6315 53.6203 12.6351 53.5954 12.6376C53.5902 12.6381 53.5855 12.6386 53.5814 12.639C50.6577 20.0434 46.8805 24.2446 42.9594 26.8423C39.0426 29.4373 34.9844 30.4306 31.5025 31.4214L30.9886 32.6346C42.9154 31.6828 49.3501 27.1634 52.8173 22.7381C56.292 18.3032 56.7902 13.9581 56.8422 13.3791ZM56.9233 13.3866C56.8705 13.974 56.3694 18.3366 52.8814 22.7885C49.3922 27.2418 42.918 31.7795 30.9283 32.7213L30.8613 32.7265L31.4428 31.3537L31.4615 31.3484C34.9512 30.3548 39.0032 29.3656 42.9143 26.7744C46.824 24.1842 50.5952 19.9912 53.5148 12.5861L53.5237 12.5634L53.5479 12.5606L53.5526 12.6011C53.548 12.561 53.5479 12.5606 53.5479 12.5606L53.5482 12.5607C53.5483 12.5606 53.5485 12.5606 53.5487 12.5606C53.5491 12.5606 53.5498 12.5605 53.5506 12.5604C53.5523 12.5602 53.5548 12.5599 53.558 12.5596C53.5646 12.5589 53.5744 12.5579 53.587 12.5566C53.6123 12.554 53.6493 12.5505 53.6964 12.5464C53.7904 12.5381 53.9246 12.5276 54.0853 12.5187C54.4065 12.5008 54.8343 12.489 55.2593 12.514C55.6833 12.5389 56.1084 12.6004 56.4222 12.7311C56.5792 12.7965 56.7113 12.8804 56.801 12.9884C56.8916 13.0976 56.9373 13.2298 56.9233 13.3866Z" fill="white"/>
<path d="M31.5323 30.2714L31.8407 29.2915C36.8048 27.3233 43.4416 25.1898 46.6576 13.9889L48.4523 12.9922C48.4523 12.9922 50.7712 11.3793 50.7781 12.2337C50.7849 13.0881 48.9367 27.0971 31.5323 30.2714Z" fill="white"/>
<path d="M50.7371 12.2342C50.7363 12.1375 50.7037 12.0847 50.6552 12.0562C50.603 12.0255 50.5231 12.0171 50.417 12.0321C50.2059 12.0622 49.9207 12.1808 49.6307 12.3288C49.342 12.4763 49.0531 12.6505 48.8361 12.788C48.7277 12.8567 48.6374 12.9162 48.5742 12.9585C48.5426 12.9796 48.5178 12.9964 48.5009 13.0079C48.4925 13.0137 48.486 13.0182 48.4817 13.0212C48.4795 13.0227 48.4779 13.0238 48.4768 13.0246C48.4762 13.025 48.4758 13.0252 48.4755 13.0254C48.4754 13.0255 48.4753 13.0256 48.4752 13.0256L48.4751 13.0257L48.4735 13.0269L48.4717 13.0278L46.6916 14.0163C45.0814 19.6141 42.6163 22.9508 39.93 25.1341C37.2489 27.3131 34.3497 28.341 31.8733 29.3222L31.5911 30.2191C40.2399 28.6244 45.0259 24.3472 47.6501 20.3604C48.9659 18.3614 49.7387 16.4347 50.1821 14.9547C50.6257 13.4734 50.7388 12.4421 50.7371 12.2342ZM50.8185 12.2333C50.8202 12.4527 50.7048 13.4928 50.26 14.9778C49.8148 16.4639 49.039 18.3981 47.718 20.4049C45.0755 24.4196 40.2529 28.7222 31.5392 30.3115L31.473 30.3236L31.8015 29.2794L31.8074 29.2608L31.8255 29.2537C34.3093 28.2689 37.203 27.2457 39.8788 25.071C42.5533 22.8973 45.0122 19.5712 46.6182 13.9779L46.6229 13.9616L48.4306 12.9576C48.4317 12.9568 48.4334 12.9558 48.4356 12.9542C48.44 12.9512 48.4466 12.9467 48.4551 12.9408C48.4722 12.9292 48.4973 12.9122 48.5291 12.8909C48.5928 12.8483 48.6836 12.7884 48.7927 12.7193C49.0107 12.5811 49.302 12.4054 49.5939 12.2564C49.8845 12.108 50.1803 11.9837 50.4059 11.9516C50.5182 11.9356 50.6206 11.9413 50.6966 11.986C50.7761 12.0328 50.8175 12.1165 50.8185 12.2333Z" fill="white"/>
<path d="M43.4251 14.7593L32.8463 26.2317L32.8042 27.8835C40.6898 24.3561 43.1007 18.059 43.4251 14.7593Z" fill="white"/>
<path d="M43.4656 14.7633C43.14 18.0755 40.7214 24.3868 32.8205 27.9211L32.7621 27.9473L32.8057 26.2315L32.8061 26.2161L32.8166 26.2047L43.4774 14.6434L43.4656 14.7633ZM32.8865 26.2483L32.8465 27.8202C40.575 24.3376 43.0032 18.1869 43.3719 14.877L32.8865 26.2483Z" fill="white"/>
<path d="M27.2989 12.6947C24.5848 15.8268 23.0719 17.5721 24.0752 16.2687L24.6848 14.711L27.2989 12.6947Z" fill="white"/>
<path d="M27.3294 12.7211C25.9724 14.287 24.9154 15.5067 24.3231 16.1719C24.175 16.3382 24.0558 16.47 23.9681 16.564C23.9243 16.611 23.8881 16.6489 23.86 16.6768C23.833 16.7038 23.811 16.7242 23.7965 16.7341C23.793 16.7365 23.787 16.7402 23.78 16.7426C23.7765 16.7437 23.7695 16.7456 23.7609 16.7447C23.7508 16.7437 23.7388 16.7387 23.7307 16.7271C23.7236 16.7171 23.7228 16.7069 23.7228 16.7018C23.7228 16.6964 23.7238 16.6918 23.7245 16.689C23.7261 16.6832 23.7285 16.6777 23.7306 16.6734C23.7388 16.6564 23.7562 16.6296 23.7806 16.5944C23.8301 16.5234 23.9155 16.4088 24.0391 16.2483L24.6466 14.696L24.6507 14.6855L27.2737 12.6623L27.3294 12.7211ZM24.7183 14.7361L24.1127 16.2834L24.1119 16.2855C24.158 16.2342 24.2083 16.1784 24.2623 16.1177C24.8149 15.4971 25.7726 14.3931 27.0019 12.9747L24.7183 14.7361Z" fill="white"/>
<path d="M26.8701 13.0205C31.2442 8.58395 21.4165 19.5916 21.822 18.5673L23.5129 13.7526C23.5129 13.7526 22.4961 17.457 26.8701 13.0205Z" fill="white"/>
<path d="M27.9727 11.9237C27.9783 11.9221 27.9895 11.9195 28.0021 11.9231C28.0187 11.9278 28.0297 11.9407 28.0335 11.9554C28.0365 11.9667 28.0346 11.9769 28.0334 11.9823C28.0306 11.994 28.0245 12.0065 28.0182 12.0181C28.0113 12.0305 28.0023 12.045 27.9915 12.0612C27.9698 12.0937 27.9397 12.1351 27.902 12.1844C27.6009 12.578 26.7941 13.5073 25.8646 14.5417C24.9347 15.5765 23.8804 16.7183 23.0839 17.5374C22.6859 17.9467 22.3514 18.2764 22.1287 18.4718C22.0187 18.5683 21.932 18.6358 21.8775 18.6619C21.8637 18.6685 21.8485 18.6742 21.8334 18.6755C21.8176 18.6769 21.7947 18.6735 21.7799 18.6524C21.7675 18.6348 21.7683 18.6143 21.7701 18.6011C21.7722 18.5863 21.7773 18.5698 21.7842 18.5525L23.4745 13.7393L23.5521 13.7635L23.5521 13.7637C23.5521 13.7638 23.552 13.7639 23.552 13.7641C23.5518 13.7645 23.5517 13.7652 23.5515 13.766C23.551 13.7677 23.5503 13.7702 23.5495 13.7735C23.5477 13.7802 23.5452 13.7902 23.5421 13.803C23.5358 13.8286 23.5271 13.8658 23.5176 13.9116C23.4986 14.0032 23.4761 14.1291 23.4628 14.2662C23.4495 14.4035 23.4454 14.5509 23.4622 14.6859C23.4791 14.8215 23.5166 14.9406 23.5832 15.0252C23.6483 15.1079 23.7437 15.1609 23.8858 15.1613C24.0303 15.1616 24.224 15.1076 24.4811 14.9707C24.9952 14.6972 25.7483 14.1005 26.8412 12.992C27.3875 12.4379 27.7138 12.1231 27.8663 11.996C27.9039 11.9647 27.9336 11.9424 27.9545 11.9314C27.9599 11.9285 27.9662 11.9256 27.9727 11.9237ZM27.8504 12.1175C27.6804 12.269 27.3741 12.5675 26.8991 13.0492C25.805 14.1589 25.0449 14.763 24.5194 15.0426C24.2568 15.1824 24.0492 15.2431 23.8856 15.2426C23.7198 15.2422 23.6004 15.1787 23.5192 15.0756C23.4396 14.9744 23.3992 14.8384 23.3815 14.6959C23.3636 14.5528 23.3682 14.399 23.3819 14.2583C23.3823 14.2537 23.3829 14.2491 23.3833 14.2444L21.8613 18.5782C21.9065 18.5514 21.9784 18.4954 22.075 18.4106C22.2951 18.2175 22.6277 17.8899 23.0256 17.4806C23.8211 16.6626 24.8745 15.5217 25.804 14.4873C26.734 13.4524 27.5386 12.5256 27.8374 12.135C27.8419 12.1291 27.8461 12.1231 27.8504 12.1175Z" fill="white"/>
<path d="M27.6449 12.5082L27.5873 12.4507L27.9942 12.0438L28.0518 12.1013L27.6449 12.5082Z" fill="white"/>
<path d="M26.412 13.6393C28.0458 11.9455 28.9588 11.0812 30.5838 9.58269L30.6941 9.70231C29.0705 11.1995 28.1601 12.0615 26.5291 13.7523L26.412 13.6393Z" fill="white"/>
</svg>
