<svg width="451" height="269" viewBox="0 0 451 269" fill="none" xmlns="http://www.w3.org/2000/svg">
<path d="M170.266 2.44177C125.604 6.47484 130.981 4.68236 95.1319 26.9389C59.2825 49.1954 57.6394 51.2867 74.0704 52.0335L83.7796 52.4816L85.4227 65.4771C86.3189 72.647 87.0658 80.5637 86.9164 82.9537C86.9164 85.493 87.3645 89.9742 87.962 93.111C88.8583 97.891 89.6051 98.6378 93.0407 98.6378C100.36 98.6378 101.256 96.9947 99.3144 87.5842C98.4181 82.9537 97.0738 79.2194 96.3269 79.2194C95.1319 79.2194 91.8457 62.9377 91.8457 56.5147V52.631L116.94 51.7348C130.683 51.1373 144.276 50.0917 147.114 49.3448C149.952 48.5979 159.063 43.2205 167.279 37.395C175.494 31.5695 189.834 21.7109 199.095 15.4372C208.207 9.16354 215.825 3.18864 215.825 1.99365C215.825 -0.545685 201.336 -0.396309 170.266 2.44177Z" fill="#7541FA"/>
<path d="M368.376 174.658C368.376 216.718 323.956 250.814 269.16 250.814C214.364 250.814 169.944 216.718 169.944 174.658C169.944 132.597 214.364 98.5009 269.16 98.5009C323.956 98.5009 368.376 132.597 368.376 174.658Z" fill="#7541FA"/>
<path d="M431.486 116.402C431.486 158.462 387.066 192.559 332.27 192.559C277.475 192.559 233.054 158.462 233.054 116.402C233.054 74.342 277.475 40.2455 332.27 40.2455C387.066 40.2455 431.486 74.342 431.486 116.402Z" fill="#7541FA"/>
<path d="M421.777 144.923C421.777 186.983 377.356 221.08 322.561 221.08C267.765 221.08 223.345 186.983 223.345 144.923C223.345 102.863 267.765 68.7664 322.561 68.7664C377.356 68.7664 421.777 102.863 421.777 144.923Z" fill="#7541FA"/>
<path d="M237.302 243.286L241.052 233.468C293.862 216.311 364.193 198.452 403.852 86.0499C403.852 86.0499 430.063 82.0225 429.666 90.7451C429.269 99.4677 420.41 221.154 237.302 243.286Z" fill="#7541FA" stroke="white" stroke-width="0.606827"/>
<path d="M241.121 225.135L243.144 217.731C280.532 201.389 330.691 183.249 351.453 98.7236L364.87 90.6916C364.87 90.6916 382.093 77.8916 382.444 84.2538C382.794 90.616 373.502 195.596 241.121 225.135Z" fill="#7541FA" stroke="white" stroke-width="0.606827"/>
<path d="M329.964 104.949L252.826 193.99L253.079 206.308C312.33 177.362 328.626 129.638 329.964 104.949Z" fill="#7541FA" stroke="white" stroke-width="0.606827"/>
<path d="M347.423 21.4332C380.583 21.4332 403.288 29.6486 422.856 49.067C439.287 65.1992 446.307 82.2277 446.457 105.082C446.457 126.143 437.196 153.329 423.753 171.552L419.421 177.528L423.603 182.905C437.943 201.278 437.943 229.808 423.304 250.87C417.33 259.533 410.01 267.898 408.367 267.898C407.769 267.898 406.425 265.06 405.38 261.625C401.496 247.136 391.04 234.737 377.746 229.061C368.485 225.028 364.451 225.327 354.742 230.705C309.93 255.351 270.495 262.819 216.572 256.844C198.946 254.753 198.498 254.754 191.926 258.189C164.292 272.23 129.787 272.081 102.004 258.04C97.9706 256.098 94.8337 254.006 94.8337 253.708C94.8344 253.259 100.51 250.272 107.53 247.135C116.343 242.953 123.065 238.621 129.189 232.646C134.117 228.017 138.15 223.686 138.152 223.236C138.152 222.638 135.612 220.995 132.625 219.352C124.708 215.02 105.439 195.153 99.4636 185.295C94.9571 177.539 91.0401 168.827 88.1228 160.037C93.2885 160.513 99.6463 161.039 107.441 161.611C146.906 164.508 175.702 132.653 191.559 106.131C195.25 102.991 199.096 99.6805 202.83 96.4186C257.052 49.6649 281.699 33.9806 314.86 25.1676C325.764 22.3296 332.486 21.5826 347.423 21.4332ZM392.086 192.315C395.222 189.328 392.831 189.777 379.388 194.556C365.646 199.336 347.273 208.149 319.639 223.087C299.176 234.14 292.752 236.978 269.599 244.895C257.501 249.077 256.156 249.674 260.936 249.824C276.322 250.272 303.508 242.206 327.706 230.107C344.137 221.742 388.053 196.049 392.086 192.315ZM409.114 170.657C408.068 168.864 391.637 169.163 383.87 170.956C363.107 175.885 340.103 185.743 307.839 203.966C281.848 218.605 261.384 227.568 241.966 232.796C233.75 235.036 225.385 237.277 223.443 237.725C217.17 239.518 220.606 241.758 228.522 241.161C238.082 240.563 261.534 234.588 274.081 229.509C288.719 223.684 292.753 221.742 314.262 209.793C350.56 189.777 375.057 179.469 397.911 174.54C404.482 173.046 409.56 171.255 409.114 170.657ZM243.235 166.103C236.555 171.62 230.763 179.323 230.762 189.627C230.762 219.053 230.913 221.592 233.452 221.443C234.798 221.442 243.759 218.306 253.169 214.422L270.346 207.402L270.795 201.726C271.392 194.855 270.197 194.705 256.903 200.83C251.376 203.22 245.849 205.012 244.803 204.564C243.459 203.966 242.713 201.277 242.713 196.498V189.328L250.63 186.191C254.812 184.399 259.891 182.606 261.833 182.008C264.521 181.262 265.119 180.066 265.119 175.137C265.119 172.001 264.82 169.313 264.372 169.312C263.924 169.312 259.443 170.955 254.364 173.047C249.286 175.137 244.656 176.78 243.908 176.781C243.161 176.781 242.713 173.644 243.011 169.611L243.235 166.103ZM317.847 114.194C315.906 114.343 280.953 133.014 279.01 134.807C277.965 135.853 277.068 138.84 277.068 141.828V146.906L292.006 139.437V166.773C292.006 181.86 292.454 194.556 292.902 195.154C293.351 195.601 296.039 194.555 298.877 192.913L303.956 189.925V132.715L311.424 129.28C318.593 125.994 318.892 125.546 318.892 120.019C318.892 116.733 318.445 114.045 317.847 114.194ZM367.886 97.0153C368.335 91.6382 367.439 90.7424 362.211 92.6842C354.593 95.373 338.162 103.14 333.531 106.128L327.855 109.563V142.575C327.855 173.345 328.004 175.585 330.544 174.839C331.888 174.39 340.85 170.806 350.26 166.773L367.439 159.454L367.886 153.926C368.484 146.906 367.289 146.906 352.502 153.628C339.805 159.304 339.356 159.155 340.103 148.251L340.552 141.678L351.157 137.197C361.015 133.015 361.912 132.268 362.808 127.637C363.256 124.799 363.406 122.11 362.958 121.811C362.657 121.513 357.43 123.156 351.456 125.546L340.552 130.027L340.103 123.305C339.805 119.571 340.402 115.836 341.299 114.94C342.195 114.044 348.469 110.907 355.19 107.92C366.991 102.692 367.438 102.393 367.886 97.0153ZM267.807 141.081C265.268 141.081 265.417 152.804 263.028 154.748L269.599 152.134V146.458C269.599 143.022 268.853 140.932 267.807 141.081ZM415.089 85.6637C409.711 83.5725 402.69 83.8705 396.566 86.5592C383.571 92.2354 376.849 104.335 375.953 123.754C375.206 139.139 377.447 146.458 383.72 150.64C395.82 158.557 417.478 151.835 417.478 140.184V135.106L410.607 138.691C402.093 143.321 396.417 143.47 392.682 139.288C390.442 136.749 389.844 133.91 389.844 123.903C389.994 103.439 397.164 94.6261 412.251 96.568L418.972 97.6129V92.3854C418.972 88.0536 418.225 86.8587 415.089 85.6637ZM182.814 33.3824C184.159 33.3839 191.925 58.3278 191.926 62.8092C191.926 64.751 188.49 69.083 183.561 73.5641C175.943 80.4352 165.786 86.1112 140.542 97.4635C114.252 109.264 104.991 134.806 125.455 139.437C128.809 140.187 132.671 140.182 136.888 139.469C117.27 153.21 95.3294 149.357 83.2292 142.115C82.243 138.61 81.2281 135.471 80.4939 133.911C77.6558 127.189 68.6929 121.065 53.7556 115.687C35.2337 108.965 26.5698 104.186 18.6531 96.2692C9.54134 87.1574 2.22208 71.7717 1.0271 59.8219C0.280237 51.457 0.430187 50.8593 3.1189 51.9049C19.5496 58.1785 23.1346 58.7767 39.5652 57.8805C59.8799 56.5361 67.3494 58.328 74.5193 66.2448C78.2535 70.4271 80.1946 74.6103 81.9871 82.3776C83.3314 88.203 84.3777 94.1778 84.3777 95.6715C84.3778 105.381 96.1777 108.368 103.945 100.75C108.874 95.671 109.174 93.4306 106.037 77.149C104.842 70.7264 103.796 63.7064 103.796 61.316V57.2828H123.663C146.666 57.2828 149.504 56.2369 169.072 42.3453C175.943 37.4161 182.067 33.3824 182.814 33.3824Z" fill="#7541FA"/>
<ellipse cx="257.327" cy="183.457" rx="115.297" ry="67.3578" fill="#7541FA"/>
<ellipse cx="322.111" cy="134.961" rx="115.297" ry="67.3578" transform="rotate(-14.517 322.111 134.961)" fill="#7541FA"/>
<path d="M231.241 243.892L235.326 234.249C287.342 219.439 356.39 204.7 399.972 94.1624C399.972 94.1624 425.585 91.2949 424.804 99.991C424.022 108.687 409.902 229.858 231.241 243.892Z" fill="white" stroke="white" stroke-width="0.606827"/>
<path d="M235.771 225.928L238.07 218.621C275.087 203.945 324.576 188.036 348.557 104.512L361.94 97.0803C361.94 97.0803 379.231 85.053 379.283 91.4241C379.334 97.7951 365.552 202.258 235.771 225.928Z" fill="white" stroke="white" stroke-width="0.606827"/>
<path d="M324.454 110.256L245.57 195.804L245.257 208.121C304.058 181.818 322.035 134.861 324.454 110.256Z" fill="white" stroke="white" stroke-width="0.606827"/>
<path d="M204.202 94.8599C183.963 118.215 172.682 131.23 180.163 121.511L184.709 109.895L204.202 94.8599Z" fill="white" stroke="white" stroke-width="0.606827"/>
<path d="M201.004 97.2922C233.621 64.2099 160.338 146.292 163.361 138.654L175.97 102.752C175.97 102.752 168.388 130.374 201.004 97.2922Z" fill="white" stroke="white" stroke-width="0.606827"/>
<line x1="209.602" y1="90.2197" x2="206.568" y2="93.2538" stroke="white" stroke-width="0.606827"/>
<path d="M198.027 102.329C210.2 89.7094 216.998 83.2729 229.11 72.1038" stroke="white" stroke-width="1.21365"/>
</svg>
